<svg xmlns="http://www.w3.org/2000/svg" width="40" height="40" viewBox="0 0 40 40">
  <defs>
    <style>
      .cls-1 {
        fill: #007bb5;
      }

      .cls-2 {
        fill: #fff;
      }
    </style>
  </defs>
  <g id="icon-linkedin" transform="translate(-2182 -4540)">
    <path id="Fondo" class="cls-1" d="M328.738,349.142a8.215,8.215,0,0,1-8.217,8.216H296.955a8.216,8.216,0,0,1-8.217-8.217V325.575a8.218,8.218,0,0,1,8.216-8.217h23.568a8.216,8.216,0,0,1,8.216,8.216Z" transform="translate(1893.262 4222.642)"/>
    <path id="Letra-n" class="cls-2" d="M313.492,351.256h6.134v19.152h-6.134Zm3.068-9.521a3.453,3.453,0,1,1-3.554,3.454,3.505,3.505,0,0,1,3.554-3.454" transform="translate(1874.632 4203.928)"/>
    <path id="Letra-i" class="cls-2" d="M358.061,382.349h5.884v2.7h.084a6.439,6.439,0,0,1,5.8-3.187c6.211,0,7.358,4.085,7.358,9.4v10.823h-6.131v-9.6c0-2.288-.039-5.234-3.188-5.234-3.19,0-3.678,2.5-3.678,5.07v9.76h-6.131Z" transform="translate(1839.176 4172.253)"/>
  </g>
</svg>
