<svg id="Capa_5" data-name="Capa 5" xmlns="http://www.w3.org/2000/svg" viewBox="0 0 414.4249 189.31883">
  <defs>
    <style>
      .cls-1 {
        fill: #7d78fa;
      }

      .cls-2 {
        fill: #f90;
      }

      .cls-3 {
        fill: #f90;
      }
    </style>
  </defs>
  <title>Redesign-xshop</title>
  <g>
    <path class="cls-1" d="M55.37354,290.49512a10.61265,10.61265,0,0,1-7.48975-2.52051,8.59146,8.59146,0,0,1-2.80029-6.43945q-.07179-3.91847,3.1499-7.98047l16.24023-19.73926L49.91357,236.1748q-3.35961-4.05834-3.22021-7.98a8.83139,8.83139,0,0,1,2.87012-6.43994,10.61817,10.61817,0,0,1,7.49023-2.52,16.0961,16.0961,0,0,1,7.3501,1.47022,17.38462,17.38462,0,0,1,5.52978,4.83008l8.68018,11.1997,8.67969-11.1997a17.04831,17.04831,0,0,1,5.60009-4.83008,16.18293,16.18293,0,0,1,7.28028-1.47022,10.67628,10.67628,0,0,1,7.41992,2.52,8.50488,8.50488,0,0,1,2.86963,6.43994q.06959,3.92139-3.28955,7.98L92.61377,253.81543l16.37988,19.73926q3.35962,4.062,3.21973,7.98047a8.62781,8.62781,0,0,1-3.00977,6.43945,10.93562,10.93562,0,0,1-7.49023,2.52051,16.18893,16.18893,0,0,1-7.27979-1.46973,17.06575,17.06575,0,0,1-5.60009-4.83008L78.47363,271.03516,68.11377,284.19531a19.40226,19.40226,0,0,1-5.46,4.75977A15.069,15.069,0,0,1,55.37354,290.49512Z" transform="translate(-45.08193 -126.51613)"/>
    <path class="cls-2" d="M162.15234,290.915a92.31338,92.31338,0,0,1-17.57031-1.75,60.2,60.2,0,0,1-15.46973-4.96973,10.68974,10.68974,0,0,1-6.43994-11.27051,12.11327,12.11327,0,0,1,2.37989-5.87988,9.58364,9.58364,0,0,1,5.18017-3.5,10.612,10.612,0,0,1,7.27979.91016,47.34113,47.34113,0,0,0,12.04,3.99023,64.99856,64.99856,0,0,0,12.60009,1.33008q9.2395,0,12.94971-2.45019,3.70826-2.44776,3.71-6.08985a6.1881,6.1881,0,0,0-2.58984-5.18066q-2.592-1.95851-9.16992-3.35938l-16.37989-3.50049q-26.60155-5.73852-26.60009-27.85986a28.20274,28.20274,0,0,1,5.25-16.93994,33.87246,33.87246,0,0,1,14.62988-11.27,55.42947,55.42947,0,0,1,21.83984-3.99023,70.25559,70.25559,0,0,1,14.77,1.61035,43.28668,43.28668,0,0,1,12.9502,4.83008A10.08371,10.08371,0,0,1,198.832,201.665a11.448,11.448,0,0,1-.27978,7.48975,9.4276,9.4276,0,0,1-4.97022,5.32031q-3.56982,1.68017-9.02978-.56006a42.03133,42.03133,0,0,0-9.24024-2.73,55.19228,55.19228,0,0,0-9.7998-.91016q-7.842,0-12.04,2.73-4.19972,2.73048-4.2002,7.07032a6.10641,6.10641,0,0,0,2.52,5.04q2.52027,1.96216,8.96045,3.35987l16.23975,3.5q27.01758,5.74218,27.02,27.15967a27.84845,27.84845,0,0,1-5.18018,16.7998A33.33888,33.33888,0,0,1,184.272,286.99512Q174.89112,290.91211,162.15234,290.915Z" transform="translate(-45.08193 -126.51613)"/>
    <path class="cls-2" d="M227.25049,290.63477q-6.02124,0-9.16992-3.21973-3.15015-3.21826-3.15039-9.37988v-76.02q0-12.59986,12.32031-12.6001,6.01758,0,9.31006,3.21973,3.28784,3.22265,3.29,9.38037v27.02q7.41723-10.08033,21.55957-10.08008,12.31639,0,18.26953,7.27978,5.95018,7.281,5.95117,22.39991v29.40039q0,6.16258-3.2207,9.37988-3.22266,3.21826-9.24024,3.21973-6.02051,0-9.24023-3.21973-3.22266-3.21826-3.22071-9.37988V249.61523q0-6.30028-2.16992-8.96044a7.74392,7.74392,0,0,0-6.36914-2.65967,11.72321,11.72321,0,0,0-8.96045,3.56982q-3.35889,3.56982-3.35888,9.59033v26.87989Q239.85059,290.63428,227.25049,290.63477Z" transform="translate(-45.08193 -126.51613)"/>
    <path class="cls-2" d="M334.62793,290.915a43.661,43.661,0,0,1-20.01953-4.33984,31.71957,31.71957,0,0,1-13.29981-12.46,37.23236,37.23236,0,0,1-4.76074-19.18066q0-11.198,4.76074-19.24951a31.87486,31.87486,0,0,1,13.29981-12.39014,48.34688,48.34688,0,0,1,40.04,0,31.45537,31.45537,0,0,1,13.22949,12.39014q4.689,8.05224,4.69043,19.24951a37.693,37.693,0,0,1-4.69043,19.18066,31.30612,31.30612,0,0,1-13.22949,12.46A43.67659,43.67659,0,0,1,334.62793,290.915Zm0-18.33984a11.69731,11.69731,0,0,0,9.24023-4.2002q3.63869-4.1997,3.63965-13.44043,0-9.37719-3.63965-13.50977a11.78672,11.78672,0,0,0-9.24023-4.12988,11.93211,11.93211,0,0,0-9.37988,4.12988q-3.64161,4.1316-3.63965,13.50977,0,9.24024,3.63965,13.44043A11.83978,11.83978,0,0,0,334.62793,272.5752Z" transform="translate(-45.08193 -126.51613)"/>
    <path class="cls-2" d="M396.36621,315.835q-12.32081,0-12.31933-12.59961V231.69482q0-12.45849,12.17968-12.46,11.05811,0,12.17969,10.36035a19.64061,19.64061,0,0,1,8.4707-7.77,27.35414,27.35414,0,0,1,12.5293-2.87012,28.372,28.372,0,0,1,15.61035,4.33984,29.26883,29.26883,0,0,1,10.63965,12.39014q3.84962,8.05224,3.85059,19.24951a45.06635,45.06635,0,0,1-3.78028,19.18066A27.71527,27.71527,0,0,1,429.40625,290.915a27.25711,27.25711,0,0,1-11.96973-2.66016,20.36531,20.36531,0,0,1-8.46972-7.13965v22.12012q0,6.15821-3.29,9.37988Q402.38525,315.83349,396.36621,315.835Zm25.2002-43.25976a11.69731,11.69731,0,0,0,9.24023-4.2002q3.63867-4.1997,3.63965-13.44043,0-9.37719-3.63965-13.50977a11.78672,11.78672,0,0,0-9.24023-4.12988,11.93214,11.93214,0,0,0-9.37989,4.12988q-3.64159,4.1316-3.63964,13.50977,0,9.24024,3.63964,13.44043A11.8398,11.8398,0,0,0,421.56641,272.5752Z" transform="translate(-45.08193 -126.51613)"/>
  </g>
  <g>
    <path class="cls-3" d="M282.743,163.48387h-8.44982V147.11252a12.14657,12.14657,0,0,0-24.29314,0v16.37135h-8.44982V147.11252a20.59639,20.59639,0,1,1,41.19278,0Z" transform="translate(-45.08193 -126.51613)"/>
    <path class="cls-1" d="M258.44982,163.48387H250V147.11252a12.14657,12.14657,0,0,0-24.29314,0v16.37135H217.257V147.11252a20.59639,20.59639,0,1,1,41.19278,0Z" transform="translate(-45.08193 -126.51613)"/>
  </g>
</svg>
