<?xml version="1.0" encoding="utf-8"?>
<!-- Generator: Adobe Illustrator 24.0.1, SVG Export Plug-In . SVG Version: 6.00 Build 0)  -->
<svg version="1.1" id="Capa_1" xmlns="http://www.w3.org/2000/svg" xmlns:xlink="http://www.w3.org/1999/xlink" x="0px" y="0px"
	 viewBox="0 0 512 512" enable-background="new 0 0 512 512" xml:space="preserve">
<g>
	<g>
		<g>
			<path fill="#FF9900" d="M385,145.7h-33.3V81.2c0-26.4-21.5-47.9-47.9-47.9S256,54.8,256,81.2v64.5h-33.3V81.2
				c0-44.8,36.4-81.2,81.2-81.2S385,36.4,385,81.2V145.7z"/>
		</g>
		<g>
			<path fill="#7D78FA" d="M289.3,145.7H256V81.2c0-26.4-21.5-47.9-47.9-47.9s-47.9,21.5-47.9,47.9v64.5H127V81.2
				C127,36.4,163.4,0,208.1,0s81.2,36.4,81.2,81.2V145.7z"/>
		</g>
	</g>
	<g>
		<path fill="#635FC7" d="M339.3,145.7V512H74.6c-5.6,0-10.1-4.5-10.1-10.1V155.8c0-5.6,4.5-10.1,10.1-10.1L339.3,145.7z"/>
		<path fill="#ED8E00" d="M437.4,145.7h-98.1V512h98.1c5.6,0,10.1-4.5,10.1-10.1V155.8C447.5,150.2,443,145.7,437.4,145.7
			L437.4,145.7z"/>
		<path fill="#E08700" d="M402.1,463.7v-318h-15.5v317.9l-47.4,38.5v9.9h12.3l42.8-34.7l41.2,34.7h1.9c5.6,0,10.1-4.5,10.1-10.1
			L402.1,463.7z"/>
	</g>
</g>
</svg>
