<svg id="Capa_1" data-name="Capa 1" xmlns="http://www.w3.org/2000/svg" viewBox="0 0 387.62212 185.91942">
  <defs>
    <style>
      .cls-1 {
        fill: #7d78fa;
      }

      .cls-2 {
        fill: none;
      }

      .cls-3 {
        fill: #f90;
      }
    </style>
  </defs>
  <title>Redesign-xshop</title>
  <path class="cls-1" d="M71.41846,287.875a10.28616,10.28616,0,0,1-7.25928-2.44336,8.33006,8.33006,0,0,1-2.71436-6.24121,12.14455,12.14455,0,0,1,3.05323-7.73535l15.74072-19.13281L66.12646,235.22461q-3.25633-3.93384-3.12109-7.73438a8.56018,8.56018,0,0,1,2.78174-6.24218,10.29006,10.29006,0,0,1,7.25977-2.44239,15.59426,15.59426,0,0,1,7.124,1.42481,16.85555,16.85555,0,0,1,5.36035,4.68115l8.41309,10.856,8.41308-10.856a16.52175,16.52175,0,0,1,5.42774-4.68115,15.68106,15.68106,0,0,1,7.05615-1.42481,10.34534,10.34534,0,0,1,7.19189,2.44239,8.24454,8.24454,0,0,1,2.78174,6.24218q.06666,3.80055-3.189,7.73438l-14.11231,17.09766,15.87647,19.13281q3.25635,3.9375,3.12109,7.73535a8.36405,8.36405,0,0,1-2.91748,6.24121A10.6,10.6,0,0,1,116.334,287.875a15.69439,15.69439,0,0,1-7.05615-1.4248,16.52955,16.52955,0,0,1-5.42773-4.68165L93.80859,269.0127l-10.0415,12.75585a18.78607,18.78607,0,0,1-5.292,4.61329A14.60262,14.60262,0,0,1,71.41846,287.875Z" transform="translate(-61.44331 -126.51613)"/>
  <path class="cls-2" d="M154.36914,219.61963a6.4254,6.4254,0,0,0,.17377,1.49829q1.178-3.76675,2.64435-7.39948A7.51912,7.51912,0,0,0,154.36914,219.61963Z" transform="translate(-61.44331 -126.51613)"/>
  <path class="cls-1" d="M154.36914,219.61963a7.51912,7.51912,0,0,1,2.81812-5.90119,99.87374,99.87374,0,0,1,13.84423-24.06964c-.21637-.00219-.43457-.01794-.65063-.01794a53.73276,53.73276,0,0,0-21.16846,3.86719,32.83714,32.83714,0,0,0-14.18017,10.92383,27.3371,27.3371,0,0,0-5.08838,16.41894q0,18.95883,20.168,25.4942a99.73236,99.73236,0,0,1,4.431-25.2171A6.4254,6.4254,0,0,1,154.36914,219.61963Z" transform="translate(-61.44331 -126.51613)"/>
  <path class="cls-1" d="M142.9707,262.63477a10.29047,10.29047,0,0,0-7.05615-.88184,9.29207,9.29207,0,0,0-5.021,3.39258,11.74488,11.74488,0,0,0-2.30664,5.69922,10.36257,10.36257,0,0,0,6.2417,10.92382,58.35735,58.35735,0,0,0,14.99463,4.81739c2.40045.46484,4.76721.80993,7.11395,1.08362a99.30533,99.30533,0,0,1-5.86444-22.00861A43.25991,43.25991,0,0,1,142.9707,262.63477Z" transform="translate(-61.44331 -126.51613)"/>
  <path class="cls-3" d="M158.43994,212.76709q4.0708-2.64624,11.66992-2.646a53.49158,53.49158,0,0,1,9.49854.88184,40.76912,40.76912,0,0,1,8.95605,2.646q5.29176,2.17236,8.75244.543a9.1383,9.1383,0,0,0,4.8169-5.15625,11.095,11.095,0,0,0,.27148-7.25976,9.77429,9.77429,0,0,0-5.15625-5.90283,41.96776,41.96776,0,0,0-12.55224-4.68164,68.2657,68.2657,0,0,0-13.66529-1.54261,99.87374,99.87374,0,0,0-13.84423,24.06964A11.53944,11.53944,0,0,1,158.43994,212.76709Z" transform="translate(-61.44331 -126.51613)"/>
  <path class="cls-3" d="M188.293,284.48242a32.32148,32.32148,0,0,0,14.1123-10.71972,26.99926,26.99926,0,0,0,5.021-16.28418q0-20.76123-26.18945-26.32471l-15.74073-3.39258q-6.24317-1.35425-8.68457-3.25635a5.99291,5.99291,0,0,1-2.26861-3.387,99.73236,99.73236,0,0,0-4.431,25.2171,57.203,57.203,0,0,0,5.61419,1.50922l15.87647,3.39209q6.37647,1.35938,8.88769,3.25683a5.99967,5.99967,0,0,1,2.51075,5.02149q0,3.53026-3.59619,5.90234-3.59692,2.376-12.55176,2.375a62.99816,62.99816,0,0,1-12.2124-1.28906c-1.2287-.24316-2.41157-.53-3.56788-.842a99.30533,99.30533,0,0,0,5.86444,22.00861,85.70807,85.70807,0,0,0,9.91584.61169Q179.19946,288.28125,188.293,284.48242Z" transform="translate(-61.44331 -126.51613)"/>
  <path class="cls-3" d="M263.05957,218.53418q-13.708,0-20.89746,9.77V202.11475q0-5.96925-3.189-9.09131-3.18969-3.12012-9.02343-3.1211-11.94288,0-11.94141,12.21241v73.6831q0,5.97217,3.05322,9.0918,3.05274,3.12012,8.88819,3.12109,12.2124,0,12.2124-12.21289V249.74414q0-5.833,3.25684-9.29492a11.35916,11.35916,0,0,1,8.68457-3.46045,7.50805,7.50805,0,0,1,6.17382,2.57812q2.10206,2.57959,2.10352,8.68457v27.54639q0,5.97217,3.12109,9.0918,3.12012,3.12012,8.95606,3.12109,5.833,0,8.95605-3.12109,3.11865-3.12012,3.12012-9.0918V247.30176q0-14.655-5.7666-21.71143Q274.999,218.53639,263.05957,218.53418Z" transform="translate(-61.44331 -126.51613)"/>
  <path class="cls-3" d="M366.25391,234.75a30.49238,30.49238,0,0,0-12.82325-12.00928,36.94982,36.94982,0,0,0-8.42523-3.01391,100.37844,100.37844,0,0,1-1.86737,67.74493,37.75539,37.75539,0,0,0,10.2926-3.39654,30.34465,30.34465,0,0,0,12.82325-12.07715,36.53379,36.53379,0,0,0,4.54589-18.58985Q370.7998,242.553,366.25391,234.75Z" transform="translate(-61.44331 -126.51613)"/>
  <path class="cls-3" d="M345.00543,219.72681a48.5212,48.5212,0,0,0-10.97906-1.19263,42.318,42.318,0,0,0-19.40528,4.20654A30.89881,30.89881,0,0,0,301.73047,234.75q-4.61426,7.804-4.61328,18.6582a36.09126,36.09126,0,0,0,4.61328,18.58985,30.74515,30.74515,0,0,0,12.89062,12.07715,42.32418,42.32418,0,0,0,19.40528,4.20605,50.04448,50.04448,0,0,0,9.11169-.80951,100.37844,100.37844,0,0,0,1.86737-67.74493Zm-10.97906,50.779a11.4759,11.4759,0,0,1-9.0918-4.07129q-3.53028-4.0708-3.52832-13.02637,0-9.09009,3.52832-13.09472a11.56415,11.56415,0,0,1,9.0918-4.00342,11.424,11.424,0,0,1,8.95605,4.00342q3.52589,4.00415,3.52735,13.09472,0,8.95607-3.52735,13.02637A11.33852,11.33852,0,0,1,334.02637,270.50586Z" transform="translate(-61.44331 -126.51613)"/>
  <path class="cls-3" d="M387.86621,312.43555q-11.94141,0-11.94043-12.21289V230.88232q0-12.07543,11.80469-12.07666,10.71827,0,11.80566,10.04151a19.03439,19.03439,0,0,1,8.21-7.53125,26.51865,26.51865,0,0,1,12.14454-2.78174,27.49236,27.49236,0,0,1,15.12988,4.20654A28.381,28.381,0,0,1,445.334,234.75q3.7295,7.804,3.73145,18.6582a43.68289,43.68289,0,0,1-3.66406,18.58985,26.86127,26.86127,0,0,1-25.51074,16.2832,26.42052,26.42052,0,0,1-11.60157-2.57812,19.73608,19.73608,0,0,1-8.21-6.91993v21.43946q0,5.9707-3.18847,9.09179Q393.70019,312.43457,387.86621,312.43555ZM412.292,270.50586a11.33854,11.33854,0,0,0,8.95606-4.07129q3.52587-4.0708,3.52734-13.02637,0-9.09009-3.52734-13.09472a11.424,11.424,0,0,0-8.95606-4.00342,11.56413,11.56413,0,0,0-9.09179,4.00342q-3.53028,4.00415-3.52832,13.09472,0,8.95607,3.52832,13.02637A11.47588,11.47588,0,0,0,412.292,270.50586Z" transform="translate(-61.44331 -126.51613)"/>
  <g>
    <path class="cls-3" d="M285.743,163.48387h-8.44982V147.11252a12.14657,12.14657,0,0,0-24.29314,0v16.37135h-8.44982V147.11252a20.59639,20.59639,0,1,1,41.19278,0Z" transform="translate(-61.44331 -126.51613)"/>
    <path class="cls-1" d="M261.44982,163.48387H253V147.11252a12.14657,12.14657,0,0,0-24.29314,0v16.37135H220.257V147.11252a20.59639,20.59639,0,1,1,41.19278,0Z" transform="translate(-61.44331 -126.51613)"/>
  </g>
</svg>
